<svg id="Layer_1" data-name="Layer 1" xmlns="http://www.w3.org/2000/svg" viewBox="0 0 1024 1024"><defs><style>.cls-1{fill:#05445e;}.cls-2{fill:#75e6da;}.cls-3{fill:#189ab4;}.cls-4{opacity:0.12;}.cls-5{fill:#fef157;}.cls-6{opacity:0.16;}.cls-7{fill:#fff;}.cls-8{fill:#790506;}.cls-9{fill:#d4f1f4;}.cls-10{fill:#6cd3c4;}</style></defs><path class="cls-1" d="M298.7,682.69c-.92,179.3-93.17,179.29-94.09,0C205.53,503.39,297.78,503.4,298.7,682.69Z"/><path class="cls-2" d="M285,778.92c-16.95,53-49.74,53-66.7,0C235.26,725.89,268,725.9,285,778.92Z"/><path class="cls-3" d="M723.08,638.6c-29.45,546-555.79,370.58-461.21-99.74,8.19,3,442.88,3,451,0A484.14,484.14,0,0,1,723.08,638.6Z"/><g class="cls-4"><path d="M286.32,670.94c0,110,35.82,207.81,91.46,270.32-98.64-68.18-150.39-262.09-115.91-402.4,8.18,3,442.89,3,451,0,2.34,11.1,4.32,22.47,5.86,34.06H314.78C277.18,577.52,291.21,641.9,286.32,670.94Z"/></g><path class="cls-1" d="M753.21,682.69c-.93,179.3-93.18,179.29-94.1,0C660,503.39,752.29,503.4,753.21,682.69Z"/><path class="cls-2" d="M739.51,778.92c-17,53-49.75,53-66.7,0C689.77,725.89,722.55,725.9,739.51,778.92Z"/><path class="cls-5" d="M573.6,598.84c.22.25,17.17-.42,17.11.23v61.48c.07.63-16.9,0-17.11.23C573.11,660.67,573.18,599,573.6,598.84Z"/><path class="cls-1" d="M585.78,661.39c-1.69,0-3.93,0-6.91-.06-2.18,0-4.43-.06-5,0l-.09.08-.29-.07c-.44-.1-.46-.5-.5-1-.2-3.17-.28-18.84-.26-33,0-28.73.22-28.79.7-29l.34-.13.12.13c.65,0,3.09,0,5.47,0,10.33-.15,11.4,0,11.76.36l.17.18v61.92l-.15.2C590.84,661.24,590.2,661.39,585.78,661.39Zm-11-1.21,4.07,0c3.74.06,9.81.15,11.29-.05V599.45c-1.43-.19-7.23-.1-10.81-.05-3.06.05-4.53.07-5.28,0-.35,5.55-.36,55.4,0,60.75Z"/><path class="cls-5" d="M590.49,661.51c-.53-.37-18.79,1-17.86-1V599.07c-1-2.07,17.4-.5,17.86-1a1,1,0,0,1,1,1C590.55,600,593.22,661.71,590.49,661.51ZM574.11,660H590V599.58H574.11Z"/><path class="cls-1" d="M579.43,662.19c-4.43,0-6.73-.26-7.24-1a.81.81,0,0,1-.11-.69V599.17a.87.87,0,0,1,.1-.72c.71-1.1,4.71-1.17,13.44-.89,2,.06,4,.13,4.58.06l.06-.07h.23a1.52,1.52,0,0,1,1.51,1.52v.22l-.07.07c-.24,1.15-.08,10,.08,19.33.49,28.15.48,41.78-1,43.16a.85.85,0,0,1-.59.22l-.2-.05c-.44-.06-2.35,0-4.18.05C583.47,662.15,581.27,662.19,579.43,662.19Zm-6.25-1.6c1.24.71,9.34.49,12.85.38,2.73-.07,3.81-.09,4.32,0a2.58,2.58,0,0,0,.12-.34H573.56V599h17v61.35c1-4.46.64-27.51.39-41.66-.27-15.23-.27-18.74,0-19.71a.43.43,0,0,0-.32-.34,30.45,30.45,0,0,1-5,0c-3.67-.12-11.2-.35-12.4.34Zm1.48-1.1h14.76V600.13H574.66Z"/><path class="cls-5" d="M608.06,618v2.07c22.57,1.17,19.77-6.51,19.63,18,0,1.11-19.19,0-19.63.39-.22.23.41,22.41-.23,22.36-.23-.19-17.17.38-17.11-.22h0c.21-.24-.41-61.76.22-61.71.48.39,36.75-.74,36.75.39C627.59,623.81,631.48,617.13,608.06,618Z"/><path class="cls-1" d="M595.76,661.38c-4.52,0-5.17-.14-5.43-.43l-.17-.18,0-.46c.06-1.23,0-9.35,0-18.68-.17-40.94,0-42.82.38-43.19l.18-.17.46.06c.86.08,6,0,11.42-.05,19.56-.24,24.79-.14,25.44.51l.17.16,0,.28c0,3.62.06,6.57.12,8.94.14,5.65.2,8.23-1.15,9.56s-3.29,1.11-7.43.92c-2.7-.12-6.36-.29-11.17-.13v1a102.63,102.63,0,0,0,11.77-.15c3.6-.22,5.58-.33,6.77.81,1.4,1.36,1.35,4,1.2,10.55,0,2-.09,4.44-.11,7.28v.23l-.2.25c-.62.6-3.45.69-13.75.47-2.37-.06-4.81-.12-5.72-.08,0,1,0,3.79,0,6.49.16,14,0,15.4-.37,15.78l-.18.17-.46,0c-.58,0-2.82,0-5,0C599.66,661.36,597.44,661.38,595.76,661.38Zm-4.49-1.22c1.51.18,7.57.1,11.31.06,2.86,0,4.19-.05,4.86,0,.22-1.84.13-9.86.07-14.8-.09-7.12-.09-7.12.15-7.36s.54-.31,6.66-.16c4.32.1,11.42.26,12.82-.13,0-2.73.07-5,.11-7,.13-5.8.19-8.72-.87-9.73-.84-.82-2.63-.71-5.94-.51a105,105,0,0,1-12.41.13l-.52,0v-3.12l.52,0c5.13-.19,9,0,11.8.11,3.68.17,5.72.26,6.61-.61s.94-3.58.82-8.75c-.06-2.3-.13-5.15-.12-8.62-2.21-.47-16.09-.29-24.52-.18-7.41.09-10.14.12-11.23.05-.28,3.53-.19,26.63-.12,42.19C591.32,654.69,591.34,658.79,591.27,660.16ZM627.14,638h0Z"/><path class="cls-5" d="M607.83,661.51c-.49-.36-18.81,1-17.85-1,.89-1-1.75-62.62.95-62.45H627.3a1.13,1.13,0,0,1,1.13,1.13c-.19,24.08,4.16,19.15-19.64,19.5v.59c22.79.62,19.77-5.27,19.64,18.7,1,2.37-19,.63-19.64,1.13S610,662.32,607.83,661.51ZM591.46,660h15.86V637.67H627V620.8H607.32v-3.55H627V599.57H591.46ZM627.3,620.8Zm-.35-3.21Z"/><path class="cls-1" d="M596.82,662.19c-4.46,0-6.79-.27-7.29-1.05a.82.82,0,0,1,0-.83l0,0c.24-1,.09-9.9-.08-19.32-.49-28.17-.47-41.82,1-43.19a.83.83,0,0,1,.57-.22v.08c1.35-.09,7.41-.09,36.34-.09a1.69,1.69,0,0,1,1.68,1.69c0,3.81.06,6.9.12,9.38.15,5.46.23,8.2-1.21,9.62a3.4,3.4,0,0,1-1.21.77,3.12,3.12,0,0,1,1.14.72c1.51,1.48,1.44,4.41,1.28,10.81,0,2.08-.1,4.52-.12,7.4a.88.88,0,0,1-.13.77c-.83,1.23-5.42,1.29-14.81,1-2-.06-4-.13-4.78-.08-.06.86,0,3.39.08,5.85.31,10.7.26,15.62-.91,16.45a.82.82,0,0,1-.79.11h0c-.38-.06-2.31,0-4.16.05C600.88,662.14,598.66,662.19,596.82,662.19Zm-6.28-1.6c1.28.71,9.39.48,12.9.38a39.55,39.55,0,0,1,4.41,0c.8-1.35.52-10.82.39-15.44-.17-5.92-.14-6.4.14-6.71s1-.34,5.7-.19c4.14.13,12.67.4,13.8-.46V638c0-2.93.07-5.41.12-7.51.12-5,.19-7.88-.5-9.35v17.06H607.87v22.36h-17V599.23c-1,4.45-.62,27.53-.38,41.71C590.79,656.08,590.79,659.61,590.54,660.59Zm-.07.19h0s0,0,0,0Zm1.53-1.3h14.77V637.12H626.4V621.35H606.77V616.7H626.4V600.13H592Zm17.3-20.11Zm-1.43-19.12h18.85c-1.14-.73-3.35-.65-7.07-.5-2.8.11-6.26.25-10.87.12h-.53v-1.67h.54c4.15-.06,7.42,0,10.05.11,4.07.12,6.55.2,7.82-.5H607.87ZM591,599H627.5v17.9c.69-1.31.62-3.84.5-8.28-.06-2.49-.15-5.59-.12-9.41a.58.58,0,0,0-.58-.58H591.09A2.26,2.26,0,0,0,591,599Z"/><g class="cls-6"><path class="cls-7" d="M603.44,921.85c-33.92,30.88-55.34,7-20.94-23.37C616.42,867.59,637.84,891.48,603.44,921.85Z"/></g><g class="cls-6"><path class="cls-7" d="M639,877.19c-13.34,12.14-21.76,2.75-8.24-9.19C644.09,855.85,652.51,865.24,639,877.19Z"/></g><path class="cls-8" d="M829.31,162c25.6-3.53,36.87,42.15,24.07,34.4,4.39-17.13-12.4-33.6-29.38-29.61-1.33.37-1.8,0-1.78-1.44C821.37,161.33,826.61,162.33,829.31,162Z"/><path class="cls-8" d="M850.66,191.43c-.75,2,.4,6.52-2.57,6.56-1.31,0-3.37.32-2.56-1.66C849.42,179,835,173.88,822.41,173.7c-.27-2.6,0-3.56,2.69-3.56C838.07,167.78,850.5,178.3,850.66,191.43Z"/><path class="cls-8" d="M828.1,177.14c10.55-2.44,22.59,19,10.19,21,1.57-9.13-1.34-20.1-14.59-15.76-1,.5-1.17,0-1.18-.95C822,177.27,824.67,177.26,828.1,177.14Z"/><path class="cls-1" d="M192.24,345.12a26.55,26.55,0,0,1-26.47-26.47c1.74-22-9.87-74.14,26.47-73.39a26.55,26.55,0,0,1,26.48,26.47C217,293.75,228.59,345.86,192.24,345.12Z"/><path class="cls-1" d="M819.74,345.12c-18.6,2.69-39.35-6.88-39.11-28,1.09-22.88-8.63-72.57,28-71.89,18.59-2.69,39.35,6.88,39.11,28C846.62,296.1,856.34,345.8,819.74,345.12Z"/><path class="cls-3" d="M805.84,150.1V444c0,49.7-36,91.37-83.26,100.14A99.22,99.22,0,0,1,704,545.89H290c-54.81.31-102.1-45.53-101.82-101.86V150.1C188.19,94.1,234,48.29,290,48.29H704C760,48.29,805.84,94.1,805.84,150.1Z"/><path class="cls-3" d="M826.12,245.25c-.45-.33-5.63.63-5.45-.53.42-.5-.86-41.36.52-41.2.46.34,5.64-.63,5.46.53C826.23,204.55,827.51,245.42,826.12,245.25Z"/><path class="cls-1" d="M833.09,198.19c.18,12.23-19,12.24-18.86,0C814.05,186,833.27,186,833.09,198.19Z"/><path class="cls-9" d="M589.9,469.6C475.15,462,253,516.06,248.29,337.4c-5.84-105.06-1.95-222.27,132.19-229.4,114.74,7.59,336.89-46.47,341.61,132.19C727.93,345.26,724,462.47,589.9,469.6Z"/><path class="cls-2" d="M722.09,240.21V288.8h-41c5-70.63-3.58-145.06-90.8-149.52H380.09c-87.14,4.39-95.88,78.93-90.84,149.52h-41C237,199.35,280.89,109,380.5,108,495.13,115.55,717.45,61.61,722.09,240.21Z"/><path class="cls-10" d="M722.09,288.8c11.28,89.46-32.56,179.83-132.21,180.8C439.06,462.72,228,521.5,248.28,288.8h41c-5,70.66,3.54,145.06,90.85,149.52H590.32c87.14-4.39,95.84-78.93,90.8-149.52Z"/><path class="cls-1" d="M491.42,378.71h-50v25H516.4v-25Z"/><rect class="cls-1" x="516.4" y="353.72" width="24.99" height="24.99"/><rect class="cls-1" x="416.46" y="353.72" width="24.99" height="24.99"/><path class="cls-1" d="M395.37,224.75l-58.58-15.21-7.85,28.38,87.87,22.81,7.85-28.38Z"/><path class="cls-1" d="M387,247.82l-59.44,15.42L335.5,292l89.16-23.14-7.94-28.71Z"/><rect class="cls-1" x="416.07" y="232.35" width="8.59" height="36.46"/><path class="cls-1" d="M557.5,276.58l58.58,15.21,7.85-28.38L536.06,240.6,528.21,269Z"/><path class="cls-1" d="M565.87,253.51l59.43-15.43-7.94-28.7-89.15,23.14,7.94,28.71Z"/><rect class="cls-1" x="528.21" y="232.52" width="8.59" height="36.46"/><g class="cls-4"><path class="cls-7" d="M805.84,150.1v32C791,113.75,744.43,60.75,686.76,48.29,748.32,41.34,806.29,86.42,805.84,150.1Z"/></g><g class="cls-4"><path class="cls-7" d="M805.84,366.1c5,95.09-.59,183.28-120.22,179.79C754,528.88,805.84,454.52,805.84,366.1Z"/></g><g class="cls-4"><path d="M293.83,544.17a97.73,97.73,0,0,0,18.41,1.72C249.94,554,187.14,511.13,187.74,444V150.1c-.55-66.52,61.37-110,124.5-101.81-56,0-101.81,45.81-101.81,101.81V444C210.43,493.77,246.56,535.49,293.83,544.17Z"/></g></svg>